<svg xmlns="http://www.w3.org/2000/svg" width="24" height="24" viewBox="0 0 24 24">
  <path fill="currentColor"
    d="M7 2H3a1 1 0 0 0-1 1v18a1 1 0 0 0 1 1h4a1 1 0 0 0 1-1V3a1 1 0 0 0-1-1M5 21a2 2 0 1 1 2-2a2 2 0 0 1-2 2m2-9H3V3h4Zm-1 7a1 1 0 1 1-1-1a1 1 0 0 1 1 1m8-17h-4a1 1 0 0 0-1 1v18a1 1 0 0 0 1 1h4a1 1 0 0 0 1-1V3a1 1 0 0 0-1-1m-2 19a2 2 0 1 1 2-2a2 2 0 0 1-2 2m2-9h-4V3h4Zm-1 7a1 1 0 1 1-1-1a1 1 0 0 1 1 1m8-17h-4a1 1 0 0 0-1 1v18a1 1 0 0 0 1 1h4a1 1 0 0 0 1-1V3a1 1 0 0 0-1-1m-2 19a2 2 0 1 1 2-2a2 2 0 0 1-2 2m2-9h-4V3h4Zm-1 7a1 1 0 1 1-1-1a1 1 0 0 1 1 1" />
</svg>